<svg viewBox="0 0 94 50" preserveAspectRatio="xMidYMid meet">
    <path d="M 0,0 L 19,0 L 19,11 L 0,11 Z" fill="#ff9800" />
    <path d="M 0,39 L 19,39 L 19,50 L 0,50 Z" fill="#ff9800" />
    <path d="M 0,11 L 19,11 L 19,39 L 0,39 Z" fill="#2196f3" />
    <path d="M 19,0 L 47,0 L 47,50 L 19,50 Q 19,25 19,25 Z" fill="#4caf50" />

    <path d="M 94,0 L 75,0 L 75,11 L 94,11 Z" fill="#ff9800" />
    <path d="M 94,39 L 75,39 L 75,50 L 94,50 Z" fill="#ff9800" />
    <path d="M 94,11 L 75,11 L 75,39 L 94,39 Z" fill="#2196f3" />
    <path d="M 75,0 L 47,0 L 47,50 L 75,50 Q 75,25 75,25 Z" fill="#4caf50" />
</svg>
