<?xml version="1.0" encoding="UTF-8"?>
<svg
		version="1.1"
		id="Capa_1"
		viewBox="0 0 425.446 265.113"
		width="800"
		height="425"
		xmlns="http://www.w3.org/2000/svg">
<rect
   y="-425.44601"
   style="fill:#966834"
   width="265.11301"
   height="425.44601"
   id="rect2"
   x="0"
   transform="rotate(90)" />
<g
   id="g392"
   transform="rotate(90,212.7235,212.723)">
	<g
   id="g356">
		<rect
   x="8.8210001"
   y="4.4569998"
   style="fill:#bf8346"
   width="249.11501"
   height="416.53101"
   id="rect4" />
		<rect
   x="249.41299"
   y="4.4569998"
   style="fill:#b5753e"
   width="8.5240002"
   height="75.646004"
   id="rect6" />
		<rect
   x="249.41299"
   y="154.508"
   style="fill:#b5753e"
   width="8.5240002"
   height="75.648003"
   id="rect8" />
		<rect
   x="249.41299"
   y="79.793999"
   style="fill:#ca8c50"
   width="8.5240002"
   height="75.647003"
   id="rect10" />
		<rect
   x="232.81599"
   y="4.4569998"
   style="fill:#b5753e"
   width="8.5209999"
   height="35.021"
   id="rect12" />
		<rect
   x="240.89"
   y="22.667999"
   style="fill:#be7343"
   width="8.5229998"
   height="75.648003"
   id="rect14" />
		<rect
   x="240.89"
   y="173.342"
   style="fill:#be7343"
   width="8.5229998"
   height="75.646004"
   id="rect16" />
		<rect
   x="240.89"
   y="97.382004"
   style="fill:#c37e44"
   width="8.5229998"
   height="75.648003"
   id="rect18" />
		<rect
   x="232.81599"
   y="39.946999"
   style="fill:#c37e44"
   width="8.5209999"
   height="75.648003"
   id="rect20" />
		<rect
   x="232.81599"
   y="114.971"
   style="fill:#be7343"
   width="8.5209999"
   height="75.648003"
   id="rect22" />
		<rect
   x="249.41299"
   y="230.00101"
   style="fill:#b5753e"
   width="8.5240002"
   height="75.648003"
   id="rect24" />
		<rect
   x="249.41299"
   y="380.052"
   style="fill:#b5753e"
   width="8.5240002"
   height="40.937"
   id="rect26" />
		<rect
   x="249.41299"
   y="305.33499"
   style="fill:#ca8c50"
   width="8.5240002"
   height="75.650002"
   id="rect28" />
		<rect
   x="232.81599"
   y="190.776"
   style="fill:#c37e44"
   width="8.5209999"
   height="74.248001"
   id="rect30" />
		<rect
   x="240.89"
   y="248.211"
   style="fill:#be7343"
   width="8.5229998"
   height="75.650002"
   id="rect32" />
		<rect
   x="240.89"
   y="398.88599"
   style="fill:#be7343"
   width="8.5229998"
   height="22.103001"
   id="rect34" />
		<rect
   x="240.89"
   y="322.92599"
   style="fill:#c37e44"
   width="8.5229998"
   height="75.650002"
   id="rect36" />
		<rect
   x="232.81599"
   y="265.48901"
   style="fill:#b5753e"
   width="8.5209999"
   height="75.649002"
   id="rect38" />
		<rect
   x="232.81599"
   y="340.51501"
   style="fill:#be7343"
   width="8.5209999"
   height="75.649002"
   id="rect40" />
		<rect
   x="208.14"
   y="345.341"
   style="fill:#b5753e"
   width="8.5249996"
   height="75.648003"
   id="rect42" />
		<rect
   x="208.14"
   y="195.28999"
   style="fill:#b5753e"
   width="8.5249996"
   height="75.648003"
   id="rect44" />
		<rect
   x="208.14"
   y="270.00299"
   style="fill:#ca8c50"
   width="8.5249996"
   height="75.649002"
   id="rect46" />
		<rect
   x="224.739"
   y="385.966"
   style="fill:#b5753e"
   width="8.5229998"
   height="35.022999"
   id="rect48" />
		<rect
   x="216.66499"
   y="327.12799"
   style="fill:#be7343"
   width="8.5229998"
   height="75.648003"
   id="rect50" />
		<rect
   x="216.66499"
   y="176.45599"
   style="fill:#be7343"
   width="8.5229998"
   height="75.648003"
   id="rect52" />
		<rect
   x="216.66499"
   y="252.414"
   style="fill:#c37e44"
   width="8.5229998"
   height="75.648003"
   id="rect54" />
		<rect
   x="224.739"
   y="309.85199"
   style="fill:#c37e44"
   width="8.5229998"
   height="75.648003"
   id="rect56" />
		<rect
   x="224.739"
   y="234.826"
   style="fill:#be7343"
   width="8.5229998"
   height="75.647003"
   id="rect58" />
		<rect
   x="208.14"
   y="119.797"
   style="fill:#c37e44"
   width="8.5249996"
   height="75.648003"
   id="rect60" />
		<rect
   x="208.14"
   y="4.4569998"
   style="fill:#b5753e"
   width="8.5249996"
   height="40.937"
   id="rect62" />
		<rect
   x="208.14"
   y="44.460999"
   style="fill:#ca8c50"
   width="8.5249996"
   height="75.648003"
   id="rect64" />
		<rect
   x="224.739"
   y="160.422"
   style="fill:#ca8c50"
   width="8.5229998"
   height="74.248001"
   id="rect66" />
		<rect
   x="216.66499"
   y="101.585"
   style="fill:#be7343"
   width="8.5229998"
   height="75.649002"
   id="rect68" />
		<rect
   x="216.66499"
   y="26.870001"
   style="fill:#c37e44"
   width="8.5229998"
   height="75.648003"
   id="rect70" />
		<rect
   x="224.739"
   y="84.307999"
   style="fill:#b5753e"
   width="8.5229998"
   height="75.647003"
   id="rect72" />
		<rect
   x="224.739"
   y="9.2819996"
   style="fill:#be7343"
   width="8.5229998"
   height="75.648003"
   id="rect74" />
		<rect
   x="199.17101"
   y="4.4569998"
   style="fill:#b5753e"
   width="8.5240002"
   height="75.646004"
   id="rect76" />
		<rect
   x="199.17101"
   y="154.508"
   style="fill:#b5753e"
   width="8.5240002"
   height="75.648003"
   id="rect78" />
		<rect
   x="199.17101"
   y="79.793999"
   style="fill:#ca8c50"
   width="8.5240002"
   height="75.647003"
   id="rect80" />
		<rect
   x="182.571"
   y="4.4569998"
   style="fill:#b5753e"
   width="8.5249996"
   height="35.021"
   id="rect82" />
		<rect
   x="190.64799"
   y="22.667999"
   style="fill:#be7343"
   width="8.5229998"
   height="75.648003"
   id="rect84" />
		<rect
   x="190.64799"
   y="173.342"
   style="fill:#be7343"
   width="8.5229998"
   height="75.646004"
   id="rect86" />
		<rect
   x="190.64799"
   y="97.382004"
   style="fill:#c37e44"
   width="8.5229998"
   height="75.648003"
   id="rect88" />
		<rect
   x="182.571"
   y="39.946999"
   style="fill:#c37e44"
   width="8.5249996"
   height="75.648003"
   id="rect90" />
		<rect
   x="182.571"
   y="114.971"
   style="fill:#be7343"
   width="8.5249996"
   height="75.648003"
   id="rect92" />
		<rect
   x="199.17101"
   y="230.00101"
   style="fill:#b5753e"
   width="8.5240002"
   height="75.648003"
   id="rect94" />
		<rect
   x="199.17101"
   y="380.052"
   style="fill:#b5753e"
   width="8.5240002"
   height="40.937"
   id="rect96" />
		<rect
   x="199.17101"
   y="305.33499"
   style="fill:#ca8c50"
   width="8.5240002"
   height="75.650002"
   id="rect98" />
		<rect
   x="182.571"
   y="190.776"
   style="fill:#c37e44"
   width="8.5249996"
   height="74.248001"
   id="rect100" />
		<rect
   x="190.64799"
   y="248.211"
   style="fill:#be7343"
   width="8.5229998"
   height="75.650002"
   id="rect102" />
		<rect
   x="190.64799"
   y="398.88599"
   style="fill:#be7343"
   width="8.5229998"
   height="22.103001"
   id="rect104" />
		<rect
   x="190.64799"
   y="322.92599"
   style="fill:#c37e44"
   width="8.5229998"
   height="75.650002"
   id="rect106" />
		<rect
   x="182.571"
   y="265.48901"
   style="fill:#b5753e"
   width="8.5249996"
   height="75.649002"
   id="rect108" />
		<rect
   x="182.571"
   y="340.51501"
   style="fill:#be7343"
   width="8.5249996"
   height="75.649002"
   id="rect110" />
		<rect
   x="157.901"
   y="345.341"
   style="fill:#b5753e"
   width="8.5229998"
   height="75.648003"
   id="rect112" />
		<rect
   x="157.901"
   y="195.28999"
   style="fill:#b5753e"
   width="8.5229998"
   height="75.648003"
   id="rect114" />
		<rect
   x="157.901"
   y="270.00299"
   style="fill:#ca8c50"
   width="8.5229998"
   height="75.649002"
   id="rect116" />
		<rect
   x="174.49699"
   y="385.966"
   style="fill:#b5753e"
   width="8.5270004"
   height="35.022999"
   id="rect118" />
		<rect
   x="166.425"
   y="327.12799"
   style="fill:#be7343"
   width="8.5209999"
   height="75.648003"
   id="rect120" />
		<rect
   x="166.425"
   y="176.45599"
   style="fill:#be7343"
   width="8.5209999"
   height="75.648003"
   id="rect122" />
		<rect
   x="166.425"
   y="252.414"
   style="fill:#c37e44"
   width="8.5209999"
   height="75.648003"
   id="rect124" />
		<rect
   x="174.49699"
   y="309.85199"
   style="fill:#c37e44"
   width="8.5270004"
   height="75.648003"
   id="rect126" />
		<rect
   x="174.49699"
   y="234.826"
   style="fill:#be7343"
   width="8.5270004"
   height="75.647003"
   id="rect128" />
		<rect
   x="157.901"
   y="119.797"
   style="fill:#c37e44"
   width="8.5229998"
   height="75.648003"
   id="rect130" />
		<rect
   x="157.901"
   y="4.4569998"
   style="fill:#b5753e"
   width="8.5229998"
   height="40.937"
   id="rect132" />
		<rect
   x="157.901"
   y="44.460999"
   style="fill:#ca8c50"
   width="8.5229998"
   height="75.648003"
   id="rect134" />
		<rect
   x="174.49699"
   y="160.422"
   style="fill:#ca8c50"
   width="8.5270004"
   height="74.248001"
   id="rect136" />
		<rect
   x="166.425"
   y="101.585"
   style="fill:#be7343"
   width="8.5209999"
   height="75.649002"
   id="rect138" />
		<rect
   x="166.425"
   y="26.870001"
   style="fill:#c37e44"
   width="8.5209999"
   height="75.648003"
   id="rect140" />
		<rect
   x="174.49699"
   y="84.307999"
   style="fill:#b5753e"
   width="8.5270004"
   height="75.647003"
   id="rect142" />
		<rect
   x="174.49699"
   y="9.2819996"
   style="fill:#be7343"
   width="8.5270004"
   height="75.648003"
   id="rect144" />
		<rect
   x="148.929"
   y="4.4569998"
   style="fill:#b5753e"
   width="8.5209999"
   height="75.646004"
   id="rect146" />
		<rect
   x="148.929"
   y="154.508"
   style="fill:#b5753e"
   width="8.5209999"
   height="75.648003"
   id="rect148" />
		<rect
   x="148.929"
   y="79.793999"
   style="fill:#ca8c50"
   width="8.5209999"
   height="75.647003"
   id="rect150" />
		<rect
   x="132.33299"
   y="4.4569998"
   style="fill:#b5753e"
   width="8.5240002"
   height="35.021"
   id="rect152" />
		<rect
   x="140.405"
   y="22.667999"
   style="fill:#be7343"
   width="8.5229998"
   height="75.648003"
   id="rect154" />
		<rect
   x="140.405"
   y="173.342"
   style="fill:#be7343"
   width="8.5229998"
   height="75.646004"
   id="rect156" />
		<rect
   x="140.405"
   y="97.382004"
   style="fill:#c37e44"
   width="8.5229998"
   height="75.648003"
   id="rect158" />
		<rect
   x="132.33299"
   y="39.946999"
   style="fill:#c37e44"
   width="8.5240002"
   height="75.648003"
   id="rect160" />
		<rect
   x="132.33299"
   y="114.971"
   style="fill:#be7343"
   width="8.5240002"
   height="75.648003"
   id="rect162" />
		<rect
   x="148.929"
   y="230.00101"
   style="fill:#b5753e"
   width="8.5209999"
   height="75.648003"
   id="rect164" />
		<rect
   x="148.929"
   y="380.052"
   style="fill:#b5753e"
   width="8.5209999"
   height="40.937"
   id="rect166" />
		<rect
   x="148.929"
   y="305.33499"
   style="fill:#ca8c50"
   width="8.5209999"
   height="75.650002"
   id="rect168" />
		<rect
   x="132.33299"
   y="190.776"
   style="fill:#c37e44"
   width="8.5240002"
   height="74.248001"
   id="rect170" />
		<rect
   x="140.405"
   y="248.211"
   style="fill:#be7343"
   width="8.5229998"
   height="75.650002"
   id="rect172" />
		<rect
   x="140.405"
   y="398.88599"
   style="fill:#be7343"
   width="8.5229998"
   height="22.103001"
   id="rect174" />
		<rect
   x="140.405"
   y="322.92599"
   style="fill:#c37e44"
   width="8.5229998"
   height="75.650002"
   id="rect176" />
		<rect
   x="132.33299"
   y="265.48901"
   style="fill:#b5753e"
   width="8.5240002"
   height="75.649002"
   id="rect178" />
		<rect
   x="132.33299"
   y="340.51501"
   style="fill:#be7343"
   width="8.5240002"
   height="75.649002"
   id="rect180" />
		<rect
   x="107.659"
   y="345.341"
   style="fill:#b5753e"
   width="8.5240002"
   height="75.648003"
   id="rect182" />
		<rect
   x="107.659"
   y="195.28999"
   style="fill:#b5753e"
   width="8.5240002"
   height="75.648003"
   id="rect184" />
		<rect
   x="107.659"
   y="270.00299"
   style="fill:#ca8c50"
   width="8.5240002"
   height="75.649002"
   id="rect186" />
		<rect
   x="124.259"
   y="385.966"
   style="fill:#b5753e"
   width="8.5209999"
   height="35.022999"
   id="rect188" />
		<rect
   x="116.183"
   y="327.12799"
   style="fill:#be7343"
   width="8.5209999"
   height="75.648003"
   id="rect190" />
		<rect
   x="116.183"
   y="176.45599"
   style="fill:#be7343"
   width="8.5209999"
   height="75.648003"
   id="rect192" />
		<rect
   x="116.183"
   y="252.414"
   style="fill:#c37e44"
   width="8.5209999"
   height="75.648003"
   id="rect194" />
		<rect
   x="124.259"
   y="309.85199"
   style="fill:#c37e44"
   width="8.5209999"
   height="75.648003"
   id="rect196" />
		<rect
   x="124.259"
   y="234.826"
   style="fill:#be7343"
   width="8.5209999"
   height="75.647003"
   id="rect198" />
		<rect
   x="107.659"
   y="119.797"
   style="fill:#c37e44"
   width="8.5240002"
   height="75.648003"
   id="rect200" />
		<rect
   x="107.659"
   y="4.4569998"
   style="fill:#b5753e"
   width="8.5240002"
   height="40.937"
   id="rect202" />
		<rect
   x="107.659"
   y="44.460999"
   style="fill:#ca8c50"
   width="8.5240002"
   height="75.648003"
   id="rect204" />
		<rect
   x="124.259"
   y="160.422"
   style="fill:#ca8c50"
   width="8.5209999"
   height="74.248001"
   id="rect206" />
		<rect
   x="116.183"
   y="101.585"
   style="fill:#be7343"
   width="8.5209999"
   height="75.649002"
   id="rect208" />
		<rect
   x="116.183"
   y="26.870001"
   style="fill:#c37e44"
   width="8.5209999"
   height="75.648003"
   id="rect210" />
		<rect
   x="124.259"
   y="84.307999"
   style="fill:#b5753e"
   width="8.5209999"
   height="75.647003"
   id="rect212" />
		<rect
   x="124.259"
   y="9.2819996"
   style="fill:#be7343"
   width="8.5209999"
   height="75.648003"
   id="rect214" />
		<rect
   x="98.686996"
   y="4.4569998"
   style="fill:#b5753e"
   width="8.5249996"
   height="75.646004"
   id="rect216" />
		<rect
   x="98.686996"
   y="154.508"
   style="fill:#b5753e"
   width="8.5249996"
   height="75.648003"
   id="rect218" />
		<rect
   x="98.686996"
   y="79.793999"
   style="fill:#ca8c50"
   width="8.5249996"
   height="75.647003"
   id="rect220" />
		<rect
   x="82.091003"
   y="4.4569998"
   style="fill:#b5753e"
   width="8.5209999"
   height="35.021"
   id="rect222" />
		<rect
   x="90.165001"
   y="22.667999"
   style="fill:#be7343"
   width="8.5209999"
   height="75.648003"
   id="rect224" />
		<rect
   x="90.165001"
   y="173.342"
   style="fill:#be7343"
   width="8.5209999"
   height="75.646004"
   id="rect226" />
		<rect
   x="90.165001"
   y="97.382004"
   style="fill:#c37e44"
   width="8.5209999"
   height="75.648003"
   id="rect228" />
		<rect
   x="82.091003"
   y="39.946999"
   style="fill:#c37e44"
   width="8.5209999"
   height="75.648003"
   id="rect230" />
		<rect
   x="82.091003"
   y="114.971"
   style="fill:#be7343"
   width="8.5209999"
   height="75.648003"
   id="rect232" />
		<rect
   x="98.686996"
   y="230.00101"
   style="fill:#b5753e"
   width="8.5249996"
   height="75.648003"
   id="rect234" />
		<rect
   x="98.686996"
   y="380.052"
   style="fill:#b5753e"
   width="8.5249996"
   height="40.937"
   id="rect236" />
		<rect
   x="98.686996"
   y="305.33499"
   style="fill:#ca8c50"
   width="8.5249996"
   height="75.650002"
   id="rect238" />
		<rect
   x="82.091003"
   y="190.776"
   style="fill:#c37e44"
   width="8.5209999"
   height="74.248001"
   id="rect240" />
		<rect
   x="90.165001"
   y="248.211"
   style="fill:#be7343"
   width="8.5209999"
   height="75.650002"
   id="rect242" />
		<rect
   x="90.165001"
   y="398.88599"
   style="fill:#be7343"
   width="8.5209999"
   height="22.103001"
   id="rect244" />
		<rect
   x="90.165001"
   y="322.92599"
   style="fill:#c37e44"
   width="8.5209999"
   height="75.650002"
   id="rect246" />
		<rect
   x="82.091003"
   y="265.48901"
   style="fill:#b5753e"
   width="8.5209999"
   height="75.649002"
   id="rect248" />
		<rect
   x="82.091003"
   y="340.51501"
   style="fill:#be7343"
   width="8.5209999"
   height="75.649002"
   id="rect250" />
		<rect
   x="57.418999"
   y="345.341"
   style="fill:#b5753e"
   width="8.5190001"
   height="75.648003"
   id="rect252" />
		<rect
   x="57.418999"
   y="195.28999"
   style="fill:#b5753e"
   width="8.5190001"
   height="75.648003"
   id="rect254" />
		<rect
   x="57.418999"
   y="270.00299"
   style="fill:#ca8c50"
   width="8.5190001"
   height="75.649002"
   id="rect256" />
		<rect
   x="74.014999"
   y="385.966"
   style="fill:#b5753e"
   width="8.5209999"
   height="35.022999"
   id="rect258" />
		<rect
   x="65.938004"
   y="327.12799"
   style="fill:#be7343"
   width="8.5240002"
   height="75.648003"
   id="rect260" />
		<rect
   x="65.938004"
   y="176.45599"
   style="fill:#be7343"
   width="8.5240002"
   height="75.648003"
   id="rect262" />
		<rect
   x="65.938004"
   y="252.414"
   style="fill:#c37e44"
   width="8.5240002"
   height="75.648003"
   id="rect264" />
		<rect
   x="74.014999"
   y="309.85199"
   style="fill:#c37e44"
   width="8.5209999"
   height="75.648003"
   id="rect266" />
		<rect
   x="74.014999"
   y="234.826"
   style="fill:#be7343"
   width="8.5209999"
   height="75.647003"
   id="rect268" />
		<rect
   x="57.418999"
   y="119.797"
   style="fill:#c37e44"
   width="8.5190001"
   height="75.648003"
   id="rect270" />
		<rect
   x="57.418999"
   y="4.4569998"
   style="fill:#b5753e"
   width="8.5190001"
   height="40.937"
   id="rect272" />
		<rect
   x="57.418999"
   y="44.460999"
   style="fill:#ca8c50"
   width="8.5190001"
   height="75.648003"
   id="rect274" />
		<rect
   x="74.014999"
   y="160.422"
   style="fill:#ca8c50"
   width="8.5209999"
   height="74.248001"
   id="rect276" />
		<rect
   x="65.938004"
   y="101.585"
   style="fill:#be7343"
   width="8.5240002"
   height="75.649002"
   id="rect278" />
		<rect
   x="65.938004"
   y="26.870001"
   style="fill:#c37e44"
   width="8.5240002"
   height="75.648003"
   id="rect280" />
		<rect
   x="74.014999"
   y="84.307999"
   style="fill:#b5753e"
   width="8.5209999"
   height="75.647003"
   id="rect282" />
		<rect
   x="74.014999"
   y="9.2819996"
   style="fill:#be7343"
   width="8.5209999"
   height="75.648003"
   id="rect284" />
		<rect
   x="48.445999"
   y="4.4569998"
   style="fill:#b5753e"
   width="8.5209999"
   height="75.646004"
   id="rect286" />
		<rect
   x="48.445999"
   y="154.508"
   style="fill:#b5753e"
   width="8.5209999"
   height="75.648003"
   id="rect288" />
		<rect
   x="48.445999"
   y="79.793999"
   style="fill:#ca8c50"
   width="8.5209999"
   height="75.647003"
   id="rect290" />
		<rect
   x="31.847"
   y="4.4569998"
   style="fill:#b5753e"
   width="8.5240002"
   height="35.021"
   id="rect292" />
		<rect
   x="39.921001"
   y="22.667999"
   style="fill:#be7343"
   width="8.5249996"
   height="75.648003"
   id="rect294" />
		<rect
   x="39.921001"
   y="173.342"
   style="fill:#be7343"
   width="8.5249996"
   height="75.646004"
   id="rect296" />
		<rect
   x="39.921001"
   y="97.382004"
   style="fill:#c37e44"
   width="8.5249996"
   height="75.648003"
   id="rect298" />
		<rect
   x="31.847"
   y="39.946999"
   style="fill:#c37e44"
   width="8.5240002"
   height="75.648003"
   id="rect300" />
		<rect
   x="31.847"
   y="114.971"
   style="fill:#be7343"
   width="8.5240002"
   height="75.648003"
   id="rect302" />
		<rect
   x="48.445999"
   y="230.00101"
   style="fill:#b5753e"
   width="8.5209999"
   height="75.648003"
   id="rect304" />
		<rect
   x="48.445999"
   y="380.052"
   style="fill:#b5753e"
   width="8.5209999"
   height="40.937"
   id="rect306" />
		<rect
   x="48.445999"
   y="305.33499"
   style="fill:#ca8c50"
   width="8.5209999"
   height="75.650002"
   id="rect308" />
		<rect
   x="31.847"
   y="190.776"
   style="fill:#c37e44"
   width="8.5240002"
   height="74.248001"
   id="rect310" />
		<rect
   x="39.921001"
   y="248.211"
   style="fill:#be7343"
   width="8.5249996"
   height="75.650002"
   id="rect312" />
		<rect
   x="39.921001"
   y="398.88599"
   style="fill:#be7343"
   width="8.5249996"
   height="22.103001"
   id="rect314" />
		<rect
   x="39.921001"
   y="322.92599"
   style="fill:#c37e44"
   width="8.5249996"
   height="75.650002"
   id="rect316" />
		<rect
   x="31.847"
   y="265.48901"
   style="fill:#b5753e"
   width="8.5240002"
   height="75.649002"
   id="rect318" />
		<rect
   x="31.847"
   y="340.51501"
   style="fill:#be7343"
   width="8.5240002"
   height="75.649002"
   id="rect320" />
		<rect
   x="7.177"
   y="345.341"
   style="fill:#b5753e"
   width="8.5209999"
   height="75.648003"
   id="rect322" />
		<rect
   x="7.177"
   y="195.28999"
   style="fill:#b5753e"
   width="8.5209999"
   height="75.648003"
   id="rect324" />
		<rect
   x="7.177"
   y="270.00299"
   style="fill:#ca8c50"
   width="8.5209999"
   height="75.649002"
   id="rect326" />
		<rect
   x="23.771"
   y="385.966"
   style="fill:#b5753e"
   width="8.5249996"
   height="35.022999"
   id="rect328" />
		<rect
   x="15.698"
   y="327.12799"
   style="fill:#be7343"
   width="8.5249996"
   height="75.648003"
   id="rect330" />
		<rect
   x="15.698"
   y="176.45599"
   style="fill:#be7343"
   width="8.5249996"
   height="75.648003"
   id="rect332" />
		<rect
   x="15.698"
   y="252.414"
   style="fill:#c37e44"
   width="8.5249996"
   height="75.648003"
   id="rect334" />
		<rect
   x="23.771"
   y="309.85199"
   style="fill:#c37e44"
   width="8.5249996"
   height="75.648003"
   id="rect336" />
		<rect
   x="23.771"
   y="234.826"
   style="fill:#be7343"
   width="8.5249996"
   height="75.647003"
   id="rect338" />
		<rect
   x="7.177"
   y="119.797"
   style="fill:#c37e44"
   width="8.5209999"
   height="75.648003"
   id="rect340" />
		<rect
   x="7.177"
   y="4.4569998"
   style="fill:#b5753e"
   width="8.5209999"
   height="40.937"
   id="rect342" />
		<rect
   x="7.177"
   y="44.460999"
   style="fill:#ca8c50"
   width="8.5209999"
   height="75.648003"
   id="rect344" />
		<rect
   x="23.771"
   y="160.422"
   style="fill:#ca8c50"
   width="8.5249996"
   height="74.248001"
   id="rect346" />
		<rect
   x="15.698"
   y="101.585"
   style="fill:#be7343"
   width="8.5249996"
   height="75.649002"
   id="rect348" />
		<rect
   x="15.698"
   y="26.870001"
   style="fill:#c37e44"
   width="8.5249996"
   height="75.648003"
   id="rect350" />
		<rect
   x="23.771"
   y="84.307999"
   style="fill:#b5753e"
   width="8.5249996"
   height="75.647003"
   id="rect352" />
		<rect
   x="23.771"
   y="9.2819996"
   style="fill:#be7343"
   width="8.5249996"
   height="75.648003"
   id="rect354" />
	</g>
	<path
   style="opacity:0.3;fill:#ffffff"
   d="m 241.858,18.517 h -81.047 v 99.142 H 104.3 V 18.517 H 23.249 v 388.41 H 241.858 Z M 104.3,406.788 v -99.139 h 56.512 v 99.139 z"
   id="path358" />
	<g
   id="g390">
		<path
   style="fill:#ffffff"
   d="M 242.759,17.62 H 161.71 103.403 22.353 v 390.204 h 220.406 z m -82.846,291.196 c 0,0.69 -0.025,1.389 -0.076,2.079 l 0.076,0.004 v 4.421 l -0.736,-0.175 c -0.328,1.39 -0.771,2.768 -1.316,4.091 l 1.658,0.684 c 0.148,-0.353 0.264,-0.719 0.395,-1.077 v 87.049 h -54.717 v -87.049 c 0.137,0.371 0.26,0.749 0.41,1.115 l 1.658,-0.687 c -0.547,-1.322 -0.992,-2.698 -1.324,-4.089 l -0.744,0.176 v -4.46 l 0.078,-0.004 c -0.051,-0.69 -0.078,-1.389 -0.078,-2.079 0,-0.09 0.006,-0.18 0.008,-0.27 h 54.701 c -0.001,0.091 0.007,0.18 0.007,0.271 z m -54.629,-2.066 c 0.926,-12.33 10.057,-22.408 21.939,-24.765 1.764,-0.125 3.535,-0.211 5.332,-0.211 1.795,0 3.57,0.086 5.334,0.211 11.883,2.357 21.014,12.435 21.939,24.765 z m -1.801,0 h -0.08 v 7.55 h -3.818 v 1.805 h 3.818 v 10.979 h -3.818 v 1.807 h 3.818 v 10.978 h -3.818 v 1.804 h 3.818 v 10.088 h -3.818 v 3.588 h 3.818 v 50.68 h -46.47 v -48.63 c 0,-37.073 26.822,-67.98 62.074,-74.385 -8.692,4.581 -14.795,13.426 -15.524,23.736 z m 58.227,48.6 h 3.371 v -3.588 h -3.371 v -10.088 h 3.371 v -1.804 h -3.371 v -10.978 h 3.371 v -1.807 h -3.371 v -10.979 h 3.371 v -1.805 h -3.371 v -7.55 h -0.084 c -0.725,-10.309 -6.83,-19.154 -15.525,-23.735 35.254,6.406 62.078,37.313 62.078,74.385 v 48.63 H 161.71 Z M 82.937,211.778 c 0.506,-26.938 22.561,-48.699 49.619,-48.699 27.057,0 49.113,21.761 49.621,48.699 z m 99.24,1.889 c -0.508,26.938 -22.564,48.7 -49.621,48.7 -27.059,0 -49.113,-21.762 -49.619,-48.7 z M 208.179,19.414 v 48.494 c 0,37.072 -26.824,67.981 -62.078,74.383 8.695,-4.579 14.801,-13.424 15.525,-23.735 h 0.084 v -7.547 h 3.371 v -1.805 h -3.371 v -10.98 h 3.371 V 96.417 H 161.71 V 85.439 h 3.371 V 83.632 H 161.71 V 73.545 h 3.371 V 69.957 H 161.71 V 19.414 Z m -102.983,97.078 c 0,-0.692 0.027,-1.391 0.078,-2.079 l -0.078,-0.004 v -4.462 l 0.744,0.179 c 0.332,-1.393 0.777,-2.767 1.324,-4.089 l -1.658,-0.687 c -0.15,0.366 -0.273,0.744 -0.41,1.115 V 19.414 h 54.717 v 87.051 c -0.131,-0.361 -0.246,-0.725 -0.395,-1.078 l -1.658,0.685 c 0.545,1.322 0.988,2.698 1.316,4.091 l 0.736,-0.175 v 4.42 l -0.076,0.004 c 0.051,0.688 0.076,1.387 0.076,2.079 0,0.09 -0.008,0.18 -0.008,0.27 h -54.701 c -0.001,-0.089 -0.007,-0.18 -0.007,-0.269 z m 54.633,2.064 c -0.926,12.333 -10.057,22.41 -21.939,24.768 -1.764,0.124 -3.539,0.209 -5.334,0.209 -1.797,0 -3.568,-0.085 -5.332,-0.209 -11.883,-2.358 -21.014,-12.435 -21.939,-24.768 z m -56.426,-48.6 h -3.818 v 3.588 h 3.818 v 10.087 h -3.818 v 1.807 h 3.818 v 10.977 h -3.818 v 1.807 h 3.818 v 10.98 h -3.818 v 1.805 h 3.818 v 7.547 h 0.08 c 0.729,10.311 6.832,19.156 15.523,23.735 C 83.754,135.887 56.932,104.978 56.932,67.906 V 19.414 h 46.471 z M 55.138,19.414 v 48.494 c 0,40.816 31.758,74.333 71.857,77.197 1.801,0.35 3.656,0.539 5.56,0.539 1.9,0 3.762,-0.189 5.563,-0.539 40.1,-2.864 71.855,-36.381 71.855,-77.197 V 19.414 h 30.99 V 211.778 H 183.97 c -0.508,-27.927 -23.367,-50.493 -51.414,-50.493 -28.045,0 -50.908,22.566 -51.414,50.493 H 24.147 V 19.414 Z M 24.147,213.667 h 56.994 c 0.506,27.929 23.369,50.493 51.414,50.493 28.047,0 50.906,-22.564 51.414,-50.493 h 56.994 V 406.03 h -30.99 V 357.4 c 0,-40.818 -31.756,-74.335 -71.855,-77.197 -1.801,-0.349 -3.662,-0.539 -5.563,-0.539 -1.904,0 -3.76,0.189 -5.56,0.539 -40.1,2.863 -71.857,36.379 -71.857,77.197 v 48.63 H 24.148 V 213.667 Z"
   id="path360" />
		<path
   style="fill:#ffffff"
   d="m 147.821,333.657 c 1.299,-0.799 2.543,-1.708 3.701,-2.7 l -1.17,-1.362 c -1.086,0.931 -2.254,1.783 -3.473,2.535 z"
   id="path362" />
		<path
   style="fill:#ffffff"
   d="m 114.782,329.616 -1.164,1.364 c 1.16,0.991 2.404,1.899 3.703,2.695 l 0.938,-1.528 c -1.217,-0.749 -2.385,-1.599 -3.477,-2.531 z"
   id="path364" />
		<path
   style="fill:#ffffff"
   d="m 139.39,337.163 c 1.482,-0.355 2.947,-0.834 4.355,-1.419 l -0.689,-1.657 c -1.32,0.551 -2.695,0.998 -4.086,1.333 z"
   id="path366" />
		<path
   style="fill:#ffffff"
   d="m 122.089,334.1 -0.688,1.659 c 1.41,0.584 2.877,1.059 4.363,1.414 l 0.414,-1.746 c -1.392,-0.332 -2.767,-0.779 -4.089,-1.327 z"
   id="path368" />
		<path
   style="fill:#ffffff"
   d="m 132.556,336.175 c -0.711,0 -1.428,-0.029 -2.131,-0.082 l -0.137,1.789 c 0.746,0.06 1.512,0.088 2.268,0.088 0.771,0 1.547,-0.031 2.309,-0.09 l -0.141,-1.791 c -0.715,0.057 -1.446,0.086 -2.168,0.086 z"
   id="path370" />
		<path
   style="fill:#ffffff"
   d="m 154.755,327.713 c 0.992,-1.162 1.895,-2.411 2.689,-3.707 l -1.531,-0.937 c -0.746,1.218 -1.594,2.389 -2.523,3.48 z"
   id="path372" />
		<path
   style="fill:#ffffff"
   d="m 109.216,323.101 -1.529,0.937 c 0.797,1.297 1.703,2.543 2.693,3.704 l 1.365,-1.166 c -0.93,-1.088 -1.779,-2.258 -2.529,-3.475 z"
   id="path374" />
		<path
   style="fill:#ffffff"
   d="m 117.321,91.631 c -1.299,0.798 -2.543,1.704 -3.703,2.696 l 1.164,1.362 c 1.092,-0.929 2.26,-1.781 3.476,-2.529 z"
   id="path376" />
		<path
   style="fill:#ffffff"
   d="m 139.39,88.145 -0.42,1.744 c 1.391,0.335 2.766,0.782 4.086,1.333 l 0.689,-1.657 c -1.408,-0.588 -2.873,-1.065 -4.355,-1.42 z"
   id="path378" />
		<path
   style="fill:#ffffff"
   d="m 125.765,88.134 c -1.486,0.354 -2.953,0.829 -4.363,1.414 l 0.688,1.657 c 1.322,-0.548 2.697,-0.993 4.09,-1.328 z"
   id="path380" />
		<path
   style="fill:#ffffff"
   d="m 110.38,97.566 c -0.99,1.16 -1.896,2.405 -2.693,3.704 l 1.529,0.937 c 0.75,-1.218 1.6,-2.387 2.529,-3.477 z"
   id="path382" />
		<path
   style="fill:#ffffff"
   d="m 154.755,97.595 -1.365,1.163 c 0.93,1.09 1.777,2.261 2.523,3.48 l 1.531,-0.937 c -0.794,-1.298 -1.697,-2.546 -2.689,-3.706 z"
   id="path384" />
		<path
   style="fill:#ffffff"
   d="m 132.556,89.132 c 0.723,0 1.453,0.029 2.168,0.086 l 0.141,-1.79 c -0.762,-0.06 -1.537,-0.09 -2.309,-0.09 -0.756,0 -1.521,0.029 -2.268,0.087 l 0.137,1.791 c 0.703,-0.055 1.42,-0.084 2.131,-0.084 z"
   id="path386" />
		<path
   style="fill:#ffffff"
   d="m 147.821,91.65 -0.941,1.528 c 1.219,0.751 2.387,1.603 3.473,2.535 l 1.17,-1.364 c -1.159,-0.991 -2.403,-1.898 -3.702,-2.699 z"
   id="path388" />
	</g>
</g>
</svg>
